<?xml version="1.0" encoding="UTF-8"?>
<svg width="80px" height="80px" viewBox="0 0 80 80" version="1.1" xmlns="http://www.w3.org/2000/svg" xmlns:xlink="http://www.w3.org/1999/xlink">
    <title>Icon/Cards/AIFA/active</title>
    <g id="AIFA" stroke="none" stroke-width="1" fill="none" fill-rule="evenodd">
        <g id="01_Home_Default" transform="translate(-452.000000, -1529.000000)" fill-rule="nonzero">
            <g id="Home/Cards/ENG" transform="translate(165.000000, 1505.000000)">
                <g id="Card/4/Default" transform="translate(228.000000, 0.000000)">
                    <g id="Group-3" transform="translate(16.000000, 24.000000)">
                        <g id="Icon/Cards/AIFA/active" transform="translate(43.000000, 0.000000)">
                            <circle id="Oval" fill="#A12885" cx="40" cy="40" r="40"></circle>
                            <g id="airplane_ticket_FILL1_wght400_GRAD0_opsz24" transform="translate(20.000000, 24.000000)" fill="#FFFFFF">
                                <path d="M19.6,17.8 L14.8,19 L12.65,17.4 C12.55,17.3333333 12.2833333,17.2666667 11.85,17.2 L11.6,17.3 C11.3,17.3666667 11.0833333,17.5416667 10.95,17.825 C10.8166667,18.1083333 10.8333333,18.3833333 11,18.65 L13.3,22.65 C13.4333333,22.85 13.6,22.9916667 13.8,23.075 C14,23.1583333 14.2166667,23.1666667 14.45,23.1 L31.5,18.6 C32,18.4666667 32.375,18.1583333 32.625,17.675 C32.875,17.1916667 32.9333333,16.7 32.8,16.2 C32.6666667,15.7 32.375,15.325 31.925,15.075 C31.475,14.825 31,14.7666667 30.5,14.9 L25.6,16.2 L18.15,9.2 C17.9833333,9.03333333 17.7833333,8.925 17.55,8.875 C17.3166667,8.825 17.0833333,8.83333333 16.85,8.9 L16.6,8.95 C16.1333333,9.05 15.8083333,9.31666667 15.625,9.75 C15.4416667,10.1833333 15.4666667,10.6 15.7,11 L19.6,17.8 Z M4,32 C2.9,32 1.95833333,31.6083333 1.175,30.825 C0.391666667,30.0416667 0,29.1 0,28 L0,21.25 C0,20.8833333 0.116666667,20.5666667 0.35,20.3 C0.583333333,20.0333333 0.883333333,19.8666667 1.25,19.8 C2.05,19.5333333 2.70833333,19.05 3.225,18.35 C3.74166667,17.65 4,16.8666667 4,16 C4,15.1333333 3.74166667,14.35 3.225,13.65 C2.70833333,12.95 2.05,12.4666667 1.25,12.2 C0.883333333,12.1333333 0.583333333,11.9666667 0.35,11.7 C0.116666667,11.4333333 0,11.1166667 0,10.75 L0,4 C0,2.9 0.391666667,1.95833333 1.175,1.175 C1.95833333,0.391666667 2.9,0 4,0 L36,0 C37.1,0 38.0416667,0.391666667 38.825,1.175 C39.6083333,1.95833333 40,2.9 40,4 L40,28 C40,29.1 39.6083333,30.0416667 38.825,30.825 C38.0416667,31.6083333 37.1,32 36,32 L4,32 Z" id="Shape"></path>
                            </g>
                        </g>
                    </g>
                </g>
            </g>
        </g>
    </g>
</svg>