<svg width="80" height="80" viewBox="0 0 80 80" fill="none" xmlns="http://www.w3.org/2000/svg">
<g clip-path="url(#clip0_1_2)">
<path d="M40 80C62.0914 80 80 62.0914 80 40C80 17.9086 62.0914 0 40 0C17.9086 0 0 17.9086 0 40C0 62.0914 17.9086 80 40 80Z" fill="#A12885"/>
<g clip-path="url(#clip1_1_2)">
<g clip-path="url(#clip2_1_2)">
<path d="M46.6738 31.6828H53.6381C55.2259 31.6828 56.5687 33.3089 56.6881 34.8183C56.7807 35.9918 56.8289 40.1244 56.5108 41.0956C56.1927 42.0668 54.8802 43.2965 53.8172 43.2965H43.3378V41.4057C43.3378 40.8693 42.5697 40.1173 42.0494 40.0246C41.3829 39.9061 38.823 39.9239 38.1075 40.0023C37.4704 40.0718 36.6631 40.7927 36.6631 41.4502V43.2965H26.1829C25.1377 43.2965 23.8617 42.1461 23.5231 41.1954C23.1712 40.2073 23.214 35.9749 23.3111 34.7738C23.4305 33.2867 24.8107 31.6828 26.3611 31.6828H33.3253C33.2986 28.926 35.1074 26.3652 37.6753 25.4207C42.0743 23.8017 46.6489 27.0593 46.6747 31.6828H46.6738ZM43.3369 31.6828C43.2006 27.2072 36.8021 27.1992 36.6622 31.6828H43.3369Z" fill="white"/>
<path d="M36.6622 45.0312C36.6515 45.6674 37.1166 46.3624 37.7074 46.5896C38.2981 46.8168 41.7714 46.8034 42.3256 46.5789C42.8798 46.3544 43.3449 45.646 43.3369 45.0321H54.9951V52.0846C54.9951 53.4746 53.2834 55.0223 51.905 55.0009L28.0086 54.9973C26.6872 54.9777 25.004 53.4015 25.004 52.0846V45.0321H36.6622V45.0312Z" fill="white"/>
</g>
</g>
</g>
<defs>
<clipPath id="clip0_1_2">
<rect width="80" height="80" fill="white"/>
</clipPath>
<clipPath id="clip1_1_2">
<rect width="40" height="40" fill="white" transform="translate(20 20)"/>
</clipPath>
<clipPath id="clip2_1_2">
<rect width="33.5151" height="30" fill="white" transform="translate(23.2424 25)"/>
</clipPath>
</defs>
</svg>
