<?xml version="1.0" encoding="UTF-8"?>
<svg id="ES" xmlns="http://www.w3.org/2000/svg" viewBox="0 0 80 80">
  <defs>
    <style>
      .cls-1 {
        fill: #fff;
      }

      .cls-2 {
        fill: #a12885;
      }
    </style>
  </defs>
  <circle id="Oval" class="cls-2" cx="40" cy="40" r="40"/>
  <g>
    <g>
      <polygon class="cls-1" points="10.77 45.71 5.27 37.33 9.28 37.33 12.38 42.8 15.66 37.33 19.48 37.33 13.99 45.71 13.99 51.94 10.77 51.94 10.77 45.71"/>
      <path class="cls-1" d="M23.46,37.33h2.66l6.36,14.61h-3.63l-1.26-3.1h-5.68l-1.22,3.1h-3.55l6.32-14.61ZM24.7,41.58l-1.78,4.54h3.57l-1.8-4.54Z"/>
      <polygon class="cls-1" points="35.28 37.33 38.95 37.33 42.56 46.91 42.61 46.91 46.28 37.33 49.73 37.33 43.7 51.94 41.12 51.94 35.28 37.33"/>
      <path class="cls-1" d="M54.78,37.33h2.66l6.36,14.61h-3.63l-1.26-3.1h-5.68l-1.22,3.1h-3.55l6.32-14.61ZM56.02,41.58l-1.78,4.54h3.57l-1.8-4.54Z"/>
      <path class="cls-1" d="M72.5,40.9c-.52-.66-1.55-.97-2.33-.97-.91,0-2.17.41-2.17,1.51,0,2.66,6.73.95,6.73,6.07,0,3.26-2.62,4.81-5.64,4.81-1.88,0-3.53-.56-4.91-1.84l2.29-2.52c.66.87,1.73,1.38,2.81,1.38s2.23-.5,2.23-1.53c0-2.68-6.85-1.24-6.85-6.11,0-3.12,2.7-4.75,5.57-4.75,1.65,0,3.24.43,4.48,1.53l-2.21,2.42Z"/>
    </g>
    <g>
      <path class="cls-1" d="M7.02,28.65h-1.73v-.91h4.47v.91h-1.73v4.74h-1.01v-4.74Z"/>
      <path class="cls-1" d="M13.11,33.39h-.91v-.61h-.02c-.18.38-.53.71-1.17.71-1.03,0-1.4-.73-1.4-1.51v-2.42h.96v1.94c0,.42.03,1.13.7,1.13.63,0,.88-.46.88-.97v-2.09h.96v3.83Z"/>
      <path class="cls-1" d="M16.24,30.62c-.18-.26-.42-.39-.75-.39-.26,0-.56.12-.56.41,0,.69,2.07.13,2.07,1.62,0,.91-.87,1.23-1.65,1.23-.59,0-1.1-.15-1.49-.59l.64-.6c.25.27.5.47.91.47.28,0,.64-.14.64-.44,0-.79-2.07-.17-2.07-1.63,0-.85.77-1.24,1.54-1.24.51,0,1.05.16,1.36.58l-.64.57Z"/>
      <path class="cls-1" d="M19.59,29.56h1.05l1.02,2.68h.02l1.03-2.68h.98l-1.51,3.83h-1.02l-1.56-3.83Z"/>
      <path class="cls-1" d="M26.64,32.86h-.02c-.27.43-.72.62-1.23.62-.71,0-1.4-.39-1.4-1.15,0-1.24,1.45-1.33,2.41-1.33h.24v-.1c0-.47-.37-.72-.88-.72-.4,0-.77.16-1.02.4l-.5-.5c.42-.43,1.02-.61,1.63-.61,1.64,0,1.64,1.18,1.64,1.72v2.2h-.86v-.53ZM26.58,31.67h-.2c-.53,0-1.44.04-1.44.59,0,.35.36.5.67.5.65,0,.97-.34.97-.88v-.22Z"/>
      <path class="cls-1" d="M31.15,30.71c-.22-.23-.47-.38-.73-.38-.7,0-1.13.55-1.13,1.15s.42,1.15,1.13,1.15c.3,0,.57-.13.74-.36l.64.69c-.39.39-1.05.53-1.38.53-1.16,0-2.08-.81-2.08-2.01s.93-2.01,2.08-2.01c.49,0,1.02.18,1.39.58l-.66.66Z"/>
      <path class="cls-1" d="M34.77,32.86h-.02c-.27.43-.72.62-1.23.62-.71,0-1.4-.39-1.4-1.15,0-1.24,1.45-1.33,2.41-1.33h.24v-.1c0-.47-.37-.72-.88-.72-.4,0-.77.16-1.02.4l-.5-.5c.42-.43,1.02-.61,1.63-.61,1.64,0,1.64,1.18,1.64,1.72v2.2h-.86v-.53ZM34.72,31.67h-.2c-.53,0-1.44.04-1.44.59,0,.35.36.5.67.5.65,0,.97-.34.97-.88v-.22Z"/>
      <path class="cls-1" d="M39.28,30.71c-.22-.23-.47-.38-.73-.38-.7,0-1.13.55-1.13,1.15s.42,1.15,1.13,1.15c.3,0,.57-.13.74-.36l.64.69c-.39.39-1.05.53-1.38.53-1.16,0-2.08-.81-2.08-2.01s.93-2.01,2.08-2.01c.49,0,1.02.18,1.39.58l-.66.66Z"/>
      <path class="cls-1" d="M40.99,27.68c.35,0,.62.25.62.57s-.27.57-.62.57-.61-.27-.61-.57.26-.57.61-.57ZM40.52,29.56h.96v3.83h-.96v-3.83Z"/>
      <path class="cls-1" d="M44.47,29.46c1.16,0,2.08.81,2.08,2.01s-.93,2.01-2.08,2.01-2.08-.81-2.08-2.01.93-2.01,2.08-2.01ZM44.47,32.62c.7,0,1.13-.55,1.13-1.15s-.42-1.15-1.13-1.15-1.13.55-1.13,1.15.42,1.15,1.13,1.15Z"/>
      <path class="cls-1" d="M47.45,29.56h.91v.61h.02c.18-.38.53-.71,1.17-.71,1.03,0,1.4.73,1.4,1.51v2.42h-.96v-1.94c0-.42-.03-1.13-.7-1.13-.63,0-.88.46-.88.97v2.09h-.96v-3.83Z"/>
      <path class="cls-1" d="M52.8,31.81c.06.57.49.91,1.03.91.48,0,.79-.22,1.03-.52l.69.52c-.45.55-1.01.77-1.62.77-1.16,0-2.08-.81-2.08-2.01s.93-2.01,2.08-2.01c1.07,0,1.8.75,1.8,2.08v.26h-2.92ZM54.76,31.09c0-.56-.38-.91-.97-.91-.57,0-.92.36-.99.91h1.96Z"/>
      <path class="cls-1" d="M58.65,30.62c-.18-.26-.42-.39-.75-.39-.26,0-.56.12-.56.41,0,.69,2.07.13,2.07,1.62,0,.91-.87,1.23-1.65,1.23-.59,0-1.1-.15-1.49-.59l.64-.6c.25.27.5.47.91.47.28,0,.64-.14.64-.44,0-.79-2.07-.17-2.07-1.63,0-.85.77-1.24,1.54-1.24.51,0,1.05.16,1.36.58l-.64.57Z"/>
      <path class="cls-1" d="M65.13,30.71c-.22-.23-.47-.38-.73-.38-.7,0-1.13.55-1.13,1.15s.42,1.15,1.13,1.15c.3,0,.57-.13.74-.36l.64.69c-.39.39-1.05.53-1.38.53-1.16,0-2.08-.81-2.08-2.01s.93-2.01,2.08-2.01c.49,0,1.02.18,1.39.58l-.66.66Z"/>
      <path class="cls-1" d="M68.25,29.46c1.16,0,2.08.81,2.08,2.01s-.93,2.01-2.08,2.01-2.08-.81-2.08-2.01.93-2.01,2.08-2.01ZM68.25,32.62c.7,0,1.13-.55,1.13-1.15s-.42-1.15-1.13-1.15-1.13.55-1.13,1.15.42,1.15,1.13,1.15Z"/>
      <path class="cls-1" d="M71.23,29.56h.91v.61h.02c.18-.38.53-.71,1.17-.71,1.03,0,1.4.73,1.4,1.51v2.42h-.96v-1.94c0-.42-.03-1.13-.7-1.13-.63,0-.88.46-.88.97v2.09h-.96v-3.83Z"/>
    </g>
  </g>
</svg>